# xmcd
#
# Track frame offsets: 
#        150
#        17142
#        26785
#        40324
#        54880
#        73972
#        87640
#        100533
#        112889
#        124733
#        142753
#        151200
#        162192
#        172982
#
# Disc length: 2569 seconds
#
# Revision: 0
# Processed by: cddbd v1.4PL0 Copyright (c) Steve Scherf et al.
# Submitted via: ExactAudioCopy v0.90b4
#
DISCID=ad0a070e
DTITLE=The Wilders - On the Wings of a Dove
DYEAR=2002
DGENRE=Country
TTITLE0=The Great Speckled Bird
TTITLE1=Are Yop Washed in the Blood
TTITLE2=Noah Found Grace in the Eyes of the Lord
TTITLE3=When the Stars Begin to Fall
TTITLE4=In the Garden
TTITLE5=Farther On
TTITLE6=That Old Time Religion
TTITLE7=Make Room in the Lifeboat
TTITLE8=Trials, Troubles, Tribulations
TTITLE9='Tis Midnight and on Olive's Brow
TTITLE10=I'd Rather Be an Old-Time Christian
TTITLE11=The Fourth Man in the Fire
TTITLE12=Brighten the Corner Where You Are
TTITLE13=On the Wings of a Dove
EXTD=
EXTT0=
EXTT1=
EXTT2=
EXTT3=
EXTT4=
EXTT5=
EXTT6=
EXTT7=
EXTT8=
EXTT9=
EXTT10=
EXTT11=
EXTT12=
EXTT13=
PLAYORDER=
